<template>
  <svg version="1.0" xmlns="http://www.w3.org/2000/svg"
    width="24px" height="25.3px" viewBox="0 0 512 606">

    <g transform="translate(0.000000,606.000000) scale(0.100000,-0.100000)">
    <path d="M2300 6049 c-30 -5 -102 -16 -160 -25 -110 -16 -284 -54 -278 -59 2
    -2 44 -9 93 -15 194 -24 412 -82 564 -151 l64 -29 96 39 c164 66 325 107 519
    132 51 7 87 16 80 20 -23 12 -239 57 -358 75 -132 19 -532 28 -620 13z"/>
    <path d="M1565 5867 c-345 -139 -625 -326 -896 -596 -232 -233 -399 -468 -533
    -753 -48 -101 -118 -278 -128 -319 -3 -15 78 -82 1412 -1168 206 -168 508
    -413 670 -546 162 -132 310 -252 328 -266 l33 -25 -103 -21 c-180 -36 -366
    -124 -486 -231 l-53 -47 375 -375 376 -375 375 375 375 374 -27 28 c-37 38
    -155 119 -228 155 -88 44 -192 80 -286 98 -45 8 -84 17 -85 18 -2 2 193 163
    434 359 240 195 781 635 1202 978 421 342 773 629 782 639 17 15 15 22 -22
    126 -90 250 -264 555 -437 770 -96 119 -315 335 -433 426 -194 151 -447 295
    -670 382 l-115 44 -120 -9 c-194 -14 -480 -82 -640 -152 l-30 -13 50 -25 c28
    -14 93 -54 145 -88 531 -349 868 -920 920 -1559 l10 -123 -457 -692 c-251
    -380 -513 -776 -581 -879 l-124 -188 -36 3 c-32 3 -42 10 -74 58 -20 30 -281
    424 -579 875 l-541 820 5 116 c22 443 226 898 557 1242 167 173 304 280 509
    394 l94 52 -39 16 c-211 90 -521 156 -731 155 -58 -1 -86 -8 -198 -53z m-925
    -1720 c227 -44 433 -113 631 -212 49 -25 93 -44 97 -41 4 2 42 -48 84 -112 42
    -65 295 -448 562 -852 267 -404 483 -736 481 -739 -3 -2 -49 32 -102 76 -219
    178 -1428 1162 -1858 1511 -253 206 -467 381 -475 389 -13 13 13 14 215 10
    193 -4 252 -9 365 -30z m4435 24 c-64 -57 -2438 -1981 -2441 -1978 -7 6 1109
    1696 1120 1697 6 0 48 20 95 44 221 113 510 202 767 235 91 11 471 14 459 2z"/>
    <path d="M2466 5660 c-192 -107 -321 -204 -472 -354 -326 -326 -524 -736 -573
    -1188 -11 -94 -15 -228 -7 -228 2 0 63 29 137 64 226 109 486 184 739 216 46
    5 168 10 270 10 102 0 224 -5 270 -10 254 -32 522 -110 739 -215 73 -36 135
    -65 137 -65 10 0 2 205 -11 298 -82 578 -396 1080 -876 1400 -84 56 -218 132
    -234 132 -6 0 -59 -27 -119 -60z"/>
    <path d="M1718 1798 c-184 -216 -279 -522 -249 -803 13 -113 39 -225 70 -299
    l20 -46 253 0 253 0 225 225 225 225 -376 376 -376 376 -45 -54z"/>
    <path d="M2980 1475 l-375 -375 225 -225 225 -225 252 0 252 0 16 29 c28 55
    65 202 77 310 22 204 -15 401 -112 596 -50 100 -161 263 -180 265 -3 0 -174
    -169 -380 -375z"/>
    <path d="M2362 857 c-105 -106 -192 -196 -192 -200 0 -4 176 -7 390 -7 215 0
    390 3 390 8 0 8 -382 392 -390 392 -3 0 -92 -87 -198 -193z"/>
    <path d="M1609 551 c23 -45 139 -201 149 -201 4 0 61 54 127 120 l120 120
    -208 0 -207 0 19 -39z"/>
    <path d="M1950 445 l-145 -146 35 -30 c65 -55 183 -132 254 -164 172 -79 311
    -108 494 -102 190 6 333 43 491 128 71 38 214 139 227 161 4 6 -58 75 -137
    154 l-144 144 -465 0 -465 0 -145 -145z"/>
    <path d="M3238 468 l123 -123 35 40 c36 42 121 165 131 190 4 13 -24 15 -203
    15 l-209 0 123 -122z"/>
  </g>
  </svg>