<svg version="1.0" xmlns="http://www.w3.org/2000/svg"
 width="512.000000pt" height="512.000000pt" viewBox="0 0 512.000000 512.000000"
 preserveAspectRatio="xMidYMid meet">

<g transform="translate(0.000000,512.000000) scale(0.100000,-0.100000)">
<path d="M2500 4648 c-28 -7 -285 -259 -1253 -1226 -670 -669 -1225 -1229
-1233 -1244 -20 -39 -18 -146 4 -180 52 -79 156 -105 237 -60 11 6 531 522
1155 1146 624 625 1139 1136 1145 1136 5 0 525 -515 1155 -1144 1029 -1028
1149 -1146 1187 -1156 81 -21 166 19 203 95 24 49 25 93 5 143 -11 26 -200
221 -620 642 l-604 605 -3 421 -3 420 -28 42 c-60 91 -188 110 -266 39 -55
-50 -61 -82 -61 -332 l0 -229 -437 436 c-490 488 -475 477 -583 446z"/>
<path d="M2514 3940 c-18 -4 -45 -16 -60 -28 -16 -11 -455 -447 -976 -969
-674 -674 -952 -960 -965 -988 -16 -36 -18 -85 -21 -527 -2 -281 1 -518 7
-558 26 -191 172 -340 361 -370 81 -12 951 -13 1037 -1 154 23 285 129 345
280 21 54 22 73 27 481 l6 425 27 50 c76 144 235 209 358 146 61 -31 116 -86
148 -146 l27 -50 6 -420 c6 -468 7 -476 77 -578 70 -103 170 -167 292 -186 86
-14 953 -14 1040 0 189 30 332 173 361 362 6 39 9 261 7 563 -3 463 -4 502
-21 534 -21 39 -1905 1931 -1952 1959 -37 23 -90 31 -131 21z"/>
</g>
</svg>
