<?xml version="1.0" encoding="UTF-8" standalone="no"?> <svg id="Layer_1" data-name="Layer 1" xmlns="http://www.w3.org/2000/svg" viewBox="0 0 24 24"><title>Artboard 19</title><polygon points="15.79 13.66 13.55 12.17 12.45 13.83 16.21 16.34 20.78 10.63 19.22 9.38 15.79 13.66"/><rect x="4" y="6" width="16" height="2"/><rect x="4" y="16" width="9" height="2"/><rect x="4" y="11" width="8" height="2"/><rect x="18" y="16" width="2" height="2"/><path d="M20.44,1H3.56A2.56,2.56,0,0,0,1,3.56V20.44A2.56,2.56,0,0,0,3.56,23H20.44A2.56,2.56,0,0,0,23,20.44V3.56A2.56,2.56,0,0,0,20.44,1ZM21,20.44a.56.56,0,0,1-.56.56H3.56A.56.56,0,0,1,3,20.44V3.56A.56.56,0,0,1,3.56,3H20.44a.56.56,0,0,1,.56.56Z"/></svg>