<svg version="1.0" xmlns="http://www.w3.org/2000/svg"
 width="128" height="128" viewBox="0 0 512.000000 512.000000"
 preserveAspectRatio="xMidYMid meet">

<g transform="translate(0.000000,512.000000) scale(0.100000,-0.100000)">
<path d="M2155 4984 c-207 -28 -363 -74 -545 -160 -407 -194 -730 -540 -895
-959 l-31 -80 -205 -6 c-112 -3 -218 -10 -234 -16 -94 -33 -143 -73 -192 -158
l-28 -50 0 -1465 0 -1465 40 -60 c27 -40 60 -73 100 -100 l60 -40 2065 0 2065
0 58 38 c57 36 113 103 132 155 5 15 12 169 15 342 l5 315 125 6 c179 9 240
31 318 111 48 49 65 79 77 129 5 19 10 255 12 524 4 540 4 545 -58 639 -30 45
-111 106 -159 120 -52 15 -197 35 -257 36 l-63 0 0 340 c0 231 -4 348 -11 367
-30 73 -41 94 -65 123 -29 33 -94 75 -146 92 -18 6 -84 14 -147 17 l-115 6
-31 80 c-270 685 -944 1141 -1678 1134 -62 -1 -157 -7 -212 -15z m549 -143
c725 -149 1266 -753 1332 -1483 l7 -78 -433 0 -433 0 -46 29 c-64 41 -153 69
-246 77 -122 10 -191 56 -215 142 -12 46 -12 58 0 104 24 86 91 131 221 146
195 24 328 117 404 284 115 254 -38 559 -319 634 -197 53 -419 -31 -528 -200
-96 -149 -103 -309 -19 -473 33 -67 41 -136 20 -190 -18 -48 -70 -93 -127
-109 -95 -28 -169 4 -242 106 -149 203 -405 263 -635 147 -55 -27 -150 -121
-184 -181 -73 -128 -81 -286 -22 -413 18 -37 39 -76 48 -85 15 -17 3 -18 -277
-18 l-293 0 7 78 c31 344 185 699 413 954 246 276 597 474 943 532 52 9 106
18 120 20 14 3 111 3 215 1 141 -3 216 -9 289 -24z m-2274 -1212 c0 -6 -5 -20
-12 -32 -49 -87 -50 -186 -4 -286 16 -35 92 -117 131 -141 87 -54 1 -52 1952
-48 l1801 3 39 -31 c21 -17 48 -48 60 -70 20 -37 21 -52 22 -306 l1 -267 -577
-3 -578 -3 -50 -23 c-108 -50 -156 -98 -197 -203 -20 -51 -22 -72 -22 -349 -1
-315 3 -342 55 -427 27 -43 94 -102 138 -120 99 -42 122 -43 686 -43 l545 0 0
-285 c0 -270 -1 -288 -21 -330 -23 -48 -54 -75 -108 -93 -50 -18 -3947 -17
-4004 0 -52 16 -99 63 -114 116 -10 32 -13 344 -13 1406 0 1355 0 1366 21
1420 13 36 31 63 50 77 50 35 199 64 199 38z m3831 -3 c78 -19 108 -42 135
-103 21 -47 24 -69 24 -173 0 -66 -3 -120 -7 -120 -5 0 -35 11 -68 25 -39 16
-80 25 -117 25 l-57 0 -5 58 c-8 72 -34 250 -42 280 -6 20 -3 22 37 22 24 -1
69 -7 100 -14z m-3645 -117 c-9 -51 -16 -112 -16 -136 0 -78 -54 -38 -66 50
-9 63 10 120 52 157 20 17 38 29 41 26 3 -2 -2 -46 -11 -97z m1752 -98 c20
-10 44 -27 53 -37 16 -19 49 -78 49 -89 0 -3 -90 -5 -200 -5 -110 0 -200 3
-200 8 1 20 74 104 107 121 51 27 141 28 191 2z m2467 -752 c55 -26 96 -73
113 -131 16 -56 12 -913 -5 -971 -14 -47 -36 -73 -88 -101 -40 -21 -42 -21
-800 -21 -758 0 -760 0 -800 21 -51 28 -69 48 -94 107 -19 45 -21 68 -21 300
0 271 5 302 53 362 14 18 46 42 71 54 45 21 51 21 745 21 492 0 707 3 724 11
46 21 58 73 28 119 -7 11 -36 16 -103 20 l-93 5 -3 99 c-1 55 0 106 2 113 4
10 34 13 116 13 92 0 118 -4 155 -21z"/>
<path d="M257 3530 c-15 -17 -31 -47 -37 -68 -6 -25 -10 -486 -10 -1377 l0
-1341 22 -44 c17 -33 35 -51 68 -68 l44 -22 1946 0 1946 0 44 22 c33 17 51 35
67 68 22 42 23 56 23 271 0 194 -2 230 -16 243 -14 14 -76 16 -531 16 -437 0
-524 2 -576 16 -145 37 -238 120 -281 251 -15 45 -17 92 -14 390 l3 338 29 59
c56 114 165 190 295 207 36 5 290 8 563 9 438 0 498 2 512 16 14 13 16 48 16
223 0 195 -1 209 -22 251 -13 24 -36 53 -51 64 l-29 21 -1796 -3 c-1643 -4
-1802 -2 -1861 13 -77 20 -122 47 -182 112 -76 81 -89 116 -98 258 -6 92 -8
100 -27 103 -14 2 -30 -8 -47 -28z"/>
<path d="M4626 2614 c-18 -17 -21 -71 -6 -94 5 -9 34 -16 80 -21 94 -8 121
-33 128 -112 4 -52 2 -57 -31 -93 l-35 -39 -724 -5 c-831 -6 -769 2 -821 -100
l-28 -55 3 -240 c3 -226 4 -242 25 -280 30 -53 62 -74 131 -85 77 -13 1354
-13 1421 0 29 5 66 19 82 30 51 37 54 64 54 535 l0 430 -25 50 c-33 66 -87 95
-176 95 -44 0 -67 -5 -78 -16z m-832 -441 c60 -21 158 -109 189 -167 15 -30
22 -65 25 -133 4 -82 2 -97 -21 -147 -34 -74 -105 -148 -170 -177 -43 -20 -69
-24 -152 -23 -123 0 -171 20 -250 105 -43 47 -55 68 -69 123 -46 186 19 338
178 412 65 30 195 33 270 7z"/>
<path d="M3545 2114 c-27 -14 -58 -33 -69 -42 -33 -30 -73 -96 -80 -132 -4
-19 -9 -48 -13 -63 -5 -28 9 -102 30 -147 19 -40 78 -100 127 -128 39 -23 56
-27 125 -26 98 0 157 25 214 91 94 106 107 230 37 338 -79 122 -248 172 -371
109z m172 -125 c102 -38 122 -164 37 -239 -30 -25 -43 -30 -89 -30 -46 0 -59
4 -90 31 -34 30 -35 33 -35 103 0 66 2 74 28 98 52 49 92 59 149 37z"/>
<path d="M3612 1917 c-47 -50 -12 -147 53 -147 38 0 85 50 85 90 0 69 -91 107
-138 57z"/>
</g>
</svg>
